<svg xmlns="http://www.w3.org/2000/svg" viewBox="0 0 431.46 546.53"><defs><style>.cls-1{fill:#24384A;}</style></defs><title>logo3</title><g id="Layer_2" data-name="Layer 2"><g id="Layer_1-2" data-name="Layer 1"><path class="cls-1" d="M316.93,386.28c0-5.32-.47-10.69.11-15.95.84-7.64,6.86-13,14.37-13.67,6.61-.6,11.79,2.57,13.72,9.07,1.32,4.44,1.69,9.15,2.8,13.66,2.17,8.9,8,14.45,16.71,16.78,6.14,1.64,11.66-.79,14.09-5.68,2.53-5.09.94-11.1-4.4-14.93-3.09-2.22-6.64-3.79-9.91-5.76a57.68,57.68,0,0,1-7.9-5.18c-4.88-4.17-5.43-7.23-3-13.23,3.58-8.8,1.24-15.83-7.07-20.11-38.14-19.66-33.81-58.66-15.88-81.71C353,220.7,396.84,224.11,417,246.9c10.57,12,14.07,35.71,7,49.93a26.06,26.06,0,0,1-5.41,7.08c-8.63,8.14-16.4,6.36-20.77-4.55a87.58,87.58,0,0,0-4.31-10.09c-3-5.46-7.6-6.55-13.1-3.58-11.06,6-11.82,15.89-1.61,23.15,4.33,3.08,9.18,5.46,13.47,8.59a59,59,0,0,1,10,8.95c3.21,3.73,2.94,7.89-.47,11.74-4,4.54-3.86,6.12.77,10.14,12.63,11,20.75,24.49,23.91,41,5,26.24-7.08,51.53-29.49,59.79-21.85,8.05-41.8,3.18-58-12.77-8-7.88-14.37-18-19.45-28.1-3.15-6.26-2.51-14.43-3.57-21.75Z"/><path class="cls-1" d="M33,231.05c13.14-.45,25.8,1.73,36.89,9.56a45,45,0,0,1,8.45,7.7c6.92,8.24,7.48,18.93,1,28.76-4.19,6.37-9.56,11.95-14.06,18.12-1.83,2.51-2.78,5.67-4.13,8.53,3.14.05,6.49.84,9.4,0,23.52-6.44,42.39,11.81,36.59,36-2.63,11-6.77,21.6-9.44,32.57-1.92,7.88-2.44,16.1-3.8,24.12-1.14,6.71-3.51,13.13-9,17.34-15.08,11.47-30.22,22.88-45.76,33.71C31,453.19,21.21,451,15,443.24c-7-8.8-8.1-19.16-5.53-29.42,4.05-16.18,3.15-31.48-3.6-46.79C.52,354.81,2.48,342.15,6,329.81c4-14.13,2.84-27.92-1.42-41.75-3.32-10.77-4.8-21.79-2.71-33a66.43,66.43,0,0,1,2.87-10.56c3.14-8.6,9.56-12.93,18.59-13.41C26.49,230.91,29.67,231.05,33,231.05Zm5.34,152.49.44.06a99.13,99.13,0,0,0,.13,11c.17,1.49,1.58,3.7,2.8,4s3.86-1,4.34-2.19c1.32-3.3,2.59-6.94,2.5-10.41-.2-8,1.08-15.38,4.82-22.59a64.41,64.41,0,0,0,5.09-15c1.14-4.89-1.79-8.6-6.53-9.48-5.78-1.07-7.59-.38-8.56,5.73C41.29,357.51,39.95,370.55,38.31,383.54ZM34,285.4l1.75,0c3.21-7.23,6.58-14.39,9.57-21.71,1.19-2.92-.24-5.16-3.35-6.12-3.33-1-4,1.29-4.61,3.66a80.71,80.71,0,0,0-2.12,9.23C34.67,275.39,34.44,280.4,34,285.4Z"/><path class="cls-1" d="M193.07,287.24c-.69,12.25-1.51,26.7-2.32,41.16-.85,15.25,2.76,29.73,7.67,44,4.53,13.15,7.44,26.41,6.38,40.6-.5,6.71,1.31,13.82,3.23,20.42,3.08,10.61.55,14.88-10.51,15.08a53.16,53.16,0,0,1-10.91-1c-16.06-3.08-21.14-11-18.42-27.55a83.46,83.46,0,0,0,1.22-16.83c-.24-5.88-3.89-9-9.21-9.19-7.21-.32-9.45,2.08-9.52,9.37-.07,7.61.57,15.47-1.06,22.79-3.92,17.65-22.46,28.37-40.13,24.2-8.63-2-12.27-7.93-9.49-16.43,1.59-4.87,4.08-9.45,6.3-14.1,5-10.51,8.46-21.28,6.76-33.21a34.06,34.06,0,0,1,4.59-22.14c9.44-16.2,9.33-33.62,7.62-51.41-1.29-13.44-2.4-26.93.73-40.27a80.75,80.75,0,0,1,15.76-32.54c12.08-15,35.37-12.23,44.27,4.95C191.08,254.85,193.07,266.14,193.07,287.24Zm-24.68,27.93-.85-.13c0-2.66.41-5.4-.1-8a40.89,40.89,0,0,0-3.32-10.25c-1.65-3.29-4.71-3.74-6.41-.18-5.15,10.81-7.1,22.13-2.82,33.69.69,1.87,3.59,4.08,5.43,4s4.72-2.35,5.3-4.23C167.08,325.33,167.53,320.19,168.39,315.17Z"/><path class="cls-1" d="M260.46,280.74c-2.47,6.59-4.47,12.19-6.66,17.72a10.56,10.56,0,0,0,1.07,10.76,30.28,30.28,0,0,1,4.66,11.28,15.75,15.75,0,0,0,7.84,11.5,58.17,58.17,0,0,0,8.32,4.55c17,6.76,25.55,19.82,28.54,37.38,3.86,22.65.69,44-10.36,64.25-8.19,15-27.12,18.42-40.35,11.64-18.8-9.62-28.21-25.16-30-46.27-.72-8.59-4.5-16.9-6.67-25.39-1.26-4.93-2.76-9.94-2.95-15-.25-6.41,3.23-9.26,9.71-9.34,4.5-.05,9-.09,13.5,0,7.34.16,10.92,3.54,11.73,10.86.62,5.62,1.18,11.25,2,16.85a12.78,12.78,0,0,0,1.86,5.62c1.36,1.86,3.47,4.34,5.28,4.36s4.56-2.16,5.57-4.08c4-7.6,4-15.69-.56-22.88-3.62-5.68-7.8-11.54-13.09-15.52-13.7-10.31-23-24.09-31.48-38.36a31.86,31.86,0,0,1-4.27-17.16c.69-12.21,1.81-24.65,5-36.4,6.77-25.14,24.81-32.52,49.61-26.82,17.59,4,28.84,17.31,30.81,36.06,1.11,10.55,1.86,21.32-2.06,31.63-2.22,5.85-6.21,9.68-12.57,10.89-8.2,1.55-14.48-2-17.11-9.92-1.46-4.42-2.5-9-4.09-13.36C263,283.73,261.45,282.17,260.46,280.74Z"/><path class="cls-1" d="M41.07,3.17C49.82,5,58.85,6,67.27,8.76,92.41,17.1,93,38.78,84.77,55,81.34,61.77,76.33,67.74,72,74c-7.11,10.21-6.2,14.26,4.73,20.57a13.51,13.51,0,0,0,2.2,1.18c15.5,5.42,21.66,17.57,22.42,32.74.66,13.14-.48,26.17-6.08,38.55-7.45,16.47-20.81,26-36.77,32.65-10.71,4.45-21.82,7.52-33.56,5.81a53.06,53.06,0,0,1-12.77-3.87c-4.19-1.77-6.27-5.54-6.16-10,.1-4.13.24-8.41,1.36-12.33,2.78-9.7,1.18-18.37-3.13-27.46-6.35-13.37-4.94-27.22.55-40.74,3.07-7.55,6.52-15,9-22.72,3.9-12.29,1.07-24.39-2.4-36.31C7.1,37.55,9.22,24.15,17.95,11.72c3.24-4.61,7.27-7.08,12.92-7.07,3.33,0,6.66-.3,10-.47Zm.8,107.26c-1,2.76-3,5.84-2.92,8.9.12,7.54.41,15.25,2.08,22.55,1.59,6.93,2.3,13.17-1,19.8-1.37,2.77-1,6.38-1.64,10.79,7.35-3.23,9.32-8.56,11.91-13.51,3.6-6.88,7.16-13.81,11.36-20.32,5.81-9,4.53-14.87-4.93-19.87C51.81,116.16,47,113.32,41.87,110.44ZM40.68,49.91l.38,0c0,1.5-.31,3.08.08,4.47a33.74,33.74,0,0,0,2.38,5.19c1.63-.9,3.74-1.42,4.81-2.77a108.77,108.77,0,0,0,8.54-12.26c5.41-9.18,1.47-15.93-9.15-16.3-2.65-.09-4.1.75-4.46,3.38Q42,40.8,40.68,49.91Z"/><path class="cls-1" d="M379.87,44.2c9.46-5.16,12.9-13.2,14.07-23.07a33.09,33.09,0,0,1,5-13.77c5.83-8.9,15.82-9,22.62-.82,7.2,8.72,8.93,18.83,6.48,29.62-4.18,18.47-14.59,32.6-30.66,42.51-6.69,4.13-7.87,9.8-2.49,15.89,3.4,3.85,7.47,7.1,11.16,10.7,8.22,8,12.7,17.49,10.65,29.21-1.58,9,.87,16.74,6.81,23.56a51.44,51.44,0,0,1,3.83,5.24c9.44,14.11,2,29.14-15,30.38a47.5,47.5,0,0,1-6.49,0c-12.08-.78-17-5.37-18.34-17.3-1.62-14-3.19-28.05-4.78-42.08,0-.17,0-.36-.05-.49-1-1.7-2-3.39-2.95-5.09-1,1.58-2.5,3-2.9,4.76a40.2,40.2,0,0,0,1.74,23,136.22,136.22,0,0,1,5,17.21c1.85,8.57,0,12.1-7.7,16.27-8,4.37-16.51,4.83-25.18,2.67-5.39-1.34-8-4.49-7.78-10.1a65.3,65.3,0,0,1,2.1-14.73c6.42-23.23,8.85-46.57,4.53-70.55-3.81-21.16-5.86-42.55-4.32-64.09a181.37,181.37,0,0,1,3-21.7c1.29-6.61,5.39-9.5,12.1-9.58,15-.17,25.33,13.47,22.49,29.83C382.06,35.8,380.91,39.78,379.87,44.2Z"/><path class="cls-1" d="M260.75,34.84c-1.38,9.78-3,18.45-3.76,27.2-2.33,27.57-.59,54.84,6.3,81.77,2.85,11.15,4.51,22.63.41,33.94-2.91,8-8.29,13.73-17.06,15-8.33,1.25-15.38-3.57-16.6-12.14-.85-6,0-12.2.33-18.31.21-3.81,1.23-7.6,1.14-11.38,0-1.72-1.9-3.4-2.93-5.09-1.2,1.55-3.21,3-3.46,4.66-1,6.4-1.44,12.89-1.95,19.35-.6,7.61-3.24,14.31-8.88,19.51-6.6,6.09-15,4.75-18.19-3.65-1.94-5.2-2.14-11.38-1.75-17,.5-7.26,3.27-14.41,3.43-21.64a297.88,297.88,0,0,0-1.42-35.25c-2.23-23-2.27-45.89,3.63-68.44,3.32-12.7,8.4-24.57,18-34,14.11-13.74,32.77-9.73,39.39,8.8C259.38,23.74,259.78,29.84,260.75,34.84ZM216.78,77c1.77,7.39,3.4,14.82,5.42,22.15.4,1.44,2.29,2.46,3.5,3.68,1.28-1.4,3.46-2.69,3.64-4.22a22.9,22.9,0,0,0-.88-8.73c-3-10.52-4.38-20.8,2-30.75a14.57,14.57,0,0,0,2.29-7c.07-2-1.34-4-2.1-6-1.67,1.08-3.88,1.79-4.93,3.3C220.07,57.55,217.91,66.87,216.78,77Z"/><path class="cls-1" d="M107.1,139.13c1.56-42.58,10.38-83.8,22.18-124.5.14-.48.36-.93.51-1.41C134.09-.58,142.24-4.27,156,5.46c2.59,1.83,4.14,5.84,5,9.16a15.4,15.4,0,0,1-.56,8.85C155.84,35.79,157,48.34,158.07,61c.34,4.09.46,8.47-.62,12.36C154,85.65,150,97.8,146.24,110c-.79,2.53-2,5-2.37,7.58-.25,1.61.07,4.16,1.11,4.87s3.54,0,4.89-.87a97.64,97.64,0,0,0,8.23-6.48c9.83-8,20.85-5.84,26.09,5.78a55.24,55.24,0,0,1,4.15,16.81c1.15,11.11,1.17,22.28-2.22,33.15-2.62,8.39-7.17,14.44-16.77,15.53-3,.34-6,2-8.58,3.63-16.64,10.35-35.38,7.63-46.33-7.34-5.7-7.79-7-17.13-7.3-26.56C107,150.45,107.1,144.79,107.1,139.13Z"/><path class="cls-1" d="M305.7,58.84c-7.06,5.82-9.95,13.33-11.53,21.14-2,9.84-2.16,19.86.71,29.67a22.53,22.53,0,0,0,2.49,5.94c.7,1.07,2.61,2.38,3.45,2.08a5.6,5.6,0,0,0,2.86-3.45,35.63,35.63,0,0,0,.81-6.93c.66-8.23,3.51-12.12,10.29-14,6.49-1.77,14.39.88,17.66,7.14,2.56,4.89,4.75,10.48,5.16,15.9,1.44,19.19-2.13,37.81-8.69,55.81-4.34,11.9-13.37,17.9-25.86,18.64-14,.83-24.54-6.76-27-20.53-1.62-8.94-1.38-18.21-2.2-27.31a134.24,134.24,0,0,0-2.09-13.75c-.93-4.71-3-9.34-3.16-14-.54-19.77-1.65-39.64-.32-59.32.8-11.85,4.52-23.91,9.05-35,6.45-15.81,22.29-22.07,38.48-17.27,7.49,2.22,13.19,6.71,15.93,14,5.64,15,6.25,30.17.2,45.29a10.73,10.73,0,0,1-.63,1.35c-2.36,4.11-4.85,8.34-10.19,8.58-5.7.25-8.86-3.94-11.79-8.05C308,62.92,306.95,60.91,305.7,58.84Z"/><path class="cls-1" d="M85,530c.81-5.4,1.54-10.82,2.49-16.2a11.18,11.18,0,0,1,1.85-4.54c2.71-3.7,5.93-7.46,11-6.17s6.92,6.07,7.19,10.88c.43,7.72,2,15.49-1,23.17a14.49,14.49,0,0,1-9.13,8.56A8.76,8.76,0,0,1,86,538.53c-.4-2.79-.31-5.64-.45-8.46Zm14.9-23.87-1.82-.63c-1.1,1.95-2.55,3.78-3.25,5.86-2.88,8.65-3.94,17.53-2,26.52.37,1.66,2,4,3.29,4.21s3.16-1.76,4.45-3.08a5,5,0,0,0,1.2-3.21c.06-8.39.08-16.78-.13-25.16C101.69,509.09,100.56,507.6,99.94,506.1Z"/><path class="cls-1" d="M343.28,523.16c0,3.48.14,7,0,10.45-.34,6.63-5.23,12.1-10.45,11.9-7.33-.28-11.3-4.5-11.29-12.23,0-5.64,0-11.29.38-16.91.54-8.79,4.83-12.75,13.28-11.86,3.94.42,7.25,2.54,7.57,7.22.26,3.81.43,7.62.64,11.42Zm-11.63,20.26c1.77-2,3.4-3,4-4.56,3.69-8.87,4.41-18,.86-27-.61-1.57-2.59-2.61-3.94-3.9-1,1.39-2.51,2.63-3,4.19-2.84,8.93-2.29,18-.42,27C329.43,540.31,330.44,541.35,331.65,543.42Z"/><path class="cls-1" d="M135,544.24c-3.93.47-6-.66-5.84-5a95.72,95.72,0,0,0-.45-12.46c-.27-2.77-1.4-5.22-5-5-3.91.25-2.49,3.28-2.62,5.29-.28,4.48-.29,9-.4,13.48-.13,5.28-1.76,6.34-6.11,5.1V503.78c5.88,0,12.36-1.52,16.53,4.76,2.49,3.75,1.83,6.15-2.3,11.19C136.8,526.28,132.12,536,135,544.24Zm-13-25.35c4.6-.25,7.41-2.22,7.66-6.49.24-4.05-2.78-6.38-7.66-6.36Z"/><path class="cls-1" d="M296.48,538.77c4.13-.51,8.27-.95,12.38-1.57a14.12,14.12,0,0,0,3.25-1.37c.49,1.7,1.45,3.45,1.3,5.09-.09,1-1.81,2.48-3,2.65a76.71,76.71,0,0,1-9.94.52c-4.62.07-9.24,0-15.17,0,1.31-2.73,1.89-4.64,3-6.16,6-8.09,12.21-16,18-24.21.9-1.27.07-3.76,0-5.69-1.83.25-3.89.05-5.43.85-3.54,1.85-7.12,3.88-6.15,9.08.14.78-1.56,1.89-2.4,2.85-1.12-1-3-1.94-3.16-3.06a7.69,7.69,0,0,1,1.56-5.06,18.64,18.64,0,0,1,15.51-7.6c2.1,0,5.7,2,5.9,3.38a14.47,14.47,0,0,1-1.84,9.19c-4.42,6.77-9.58,13.07-14.44,19.55Z"/><path class="cls-1" d="M160.55,544.52c-3.19.07-4.85-1-4.22-5.22.6-4,.13-8.23.13-12.71l-7.4-.59c-.41,5.67-4.62,11,.21,18-2.83-.22-5.63.15-7.77-.88-1-.48-1.2-3.79-.84-5.64,2.06-10.37,4.6-20.65,6.55-31,.84-4.48,4-3.38,6.62-3.62,3-.27,5.17.92,5.25,4.39.22,10.09.41,20.18.7,30.27C159.85,539.8,160.27,542.06,160.55,544.52Zm-8.69-39.32L149.63,524l7.48-.33c-.35-5.63-.71-10.71-1-15.8C156,504.34,154.12,504.29,151.86,505.2Z"/><path class="cls-1" d="M29.84,511.42c5.76,0,10.83,0,15.89,0,4.32,0,5,2.17,3,6.75-3-4.17-7.4-7-10.73-3.35-2,2.22-.91,7.37-1.29,12.44L45.14,525l.7,4.18-8.72-1.27V541l10.26-.83c1.89,3.11.72,4.89-2.73,5.22-3.79.37-7.61.34-11.41.56-2.6.15-3.47-1-3.44-3.56C29.9,532.49,29.84,522.58,29.84,511.42Z"/><path class="cls-1" d="M69.26,546.53c-1.43-1.78-3.69-3.36-4.16-5.36-2.31-9.84-4.14-19.79-6.18-29.69-.46-2.21-1.09-4.39-1.66-6.67,5.1-2.44,7.17-1.55,7.95,4.08,1,7.53,1.87,15.09,2.82,22.64a10.32,10.32,0,0,0,1.53,4.62c.86-5.52,1.84-11,2.53-16.55.65-5.18,5.36-10,1.28-16.41l7.07,1.29c-7,13-6.72,27.3-9.33,40.9Z"/><path class="cls-1" d="M180.9,503.84c6.54,0,12.65-.3,18.7.11,3.6.24,3.82,1.42,2.31,6.12-1.63-.79-3.18-2-4.88-2.29-9.64-1.51-10.25-1-10.81,8.71-.12,2,0,3.94,0,7l4.83-4c4.24,1.79,2.39,4.55.9,7.66l-5.52-2.74c-2,11-1.55,15.17,2.94,18.88-3.3,0-5.65.54-7.43-.23-.9-.39-1-3.15-1.06-4.85-.23-9.29-.37-18.57-.46-27.86C180.39,508.43,180.69,506.45,180.9,503.84Z"/><path class="cls-1" d="M242.66,517.66a16.77,16.77,0,0,1-2.7-3.22c-.86-1.77-1-4-2-5.54a4.3,4.3,0,0,0-3.71-1.37,4,4,0,0,0-2.26,3c-.43,6.46-1.13,12.93,5.25,17.62,4.16,3.06,2.94,8.24,3,12.55,0,1.34-2.52,3.39-4.28,4-3.69,1.26-7.83,1.36-10.54-1.9-1-1.23-.16-4-.16-6.07l1.52-.16a8.91,8.91,0,0,1,1.17,1.33c.92,1.57,1.57,4.32,2.68,4.51,1.5.26,4.31-1.09,4.79-2.39a8.21,8.21,0,0,0-.73-6.31c-2.07-3.37-5.25-6-7.36-9.4-4.94-7.83-1.82-17.29,6.24-19.76,4.9-1.5,7.12-.3,8.39,4.72.63,2.49,1,5,1.55,7.56Z"/><path class="cls-1" d="M390.58,509.59l-15.15-1.26.07-2.21c7.25-2.25,14.58-2,22.94.18l-12.84,15.48,7.46,1a21.44,21.44,0,0,1-2.79,1.89c-2.2.88-5.67,1.07-6.4,2.6-1.66,3.49-2,7.6-2.84,11.48-.56,2.68,2.07,7.56-3.28,7-5-.5-1.65-5-2.09-7.71a6.61,6.61,0,0,1,.24-2c.68-4.32,4.18-8.86-.14-11.58Z"/><path class="cls-1" d="M215.19,530.26l-5-4.45v16.37c2.31-1.13,4.08-2,5.83-2.86a13.23,13.23,0,0,1,2.66-1.36c.26-.06,1.21,1.2,1.15,1.79-.1,1-.58,2.74-1.17,2.85a101.55,101.55,0,0,1-13.21,1.86c-.73,0-2.37-2.35-2.29-3.52q1.28-17.14,3.16-34.22a4,4,0,0,1,2.83-2.58c3.43-.33,6.9-.12,10.65-.12v4.58L210,505.45l-1.15,19.13C216.44,522.62,216.44,522.62,215.19,530.26Z"/><path class="cls-1" d="M359.91,511.44l-4.37,2.64-1.4-1.65c2.77-2.74,5.2-6,8.42-8,2.81-1.78,3,1.13,3,3.16-.2,8.62-.45,17.24-.69,25.86-.11,4.09-1.09,8.56,5.44,9.42-5.17,3.29-15,2.67-19.76-.7.32-.38.66-1.09.94-1.07,7.56.58,7.2-4.76,7.42-9.76C359.17,524.74,359.55,518.18,359.91,511.44Z"/><path class="cls-1" d="M251.66,511.45c-3.89-4.22-3.35-8.46.39-8.65a139.7,139.7,0,0,1,20.69.95c1,.1,1.75,2.75,2.86,4.63l-10.69-2.17v37.68h-7.13c.69-4,1.79-7.73,1.92-11.53.24-7.14,0-14.31-.19-21.46-.06-2.29.84-5.22-3.26-5.38C252.67,505.38,251,506.75,251.66,511.45Z"/><path class="cls-1" d="M48.22,505.35l-9.92,3C43.07,502.41,45.08,501.76,48.22,505.35Z"/></g></g></svg>